<?xml version="1.0" encoding="UTF-8" standalone="no"?><svg xmlns="http://www.w3.org/2000/svg" xmlns:xlink="http://www.w3.org/1999/xlink" data-name="Layer 1" fill="#000000" height="211.8" preserveAspectRatio="xMidYMid meet" version="1" viewBox="295.9 394.6 488.3 211.8" width="488.3" zoomAndPan="magnify"><g id="change1_1"><path d="M507.35,427.69a3.95,3.95,0,0,1-2.31-7.15l34.51-24.92a4,4,0,0,1,4.63,0L575,417.85a3.95,3.95,0,0,1-4.62,6.4l-28.47-20.56-32.21,23.25A3.91,3.91,0,0,1,507.35,427.69Z" fill="#ffffff"/></g><g id="change1_2"><path d="M521.52,454.7a4,4,0,0,1-2.79-6.74l19.53-19.54a4,4,0,0,1,2.8-1.16h0a4,4,0,0,1,2.79,1.16l17.42,17.43a3.95,3.95,0,0,1-5.58,5.58L541.06,436.8l-16.75,16.74A3.9,3.9,0,0,1,521.52,454.7Z" fill="#ffffff"/></g><g id="change1_3"><path d="M742.91,606.44H337.09a41.28,41.28,0,0,1-41.23-41.23V490.66a41.27,41.27,0,0,1,41.23-41.22h141.4a3.95,3.95,0,1,1,0,7.89H337.09a33.37,33.37,0,0,0-33.33,33.33v74.55a33.37,33.37,0,0,0,33.33,33.33H742.91a33.37,33.37,0,0,0,33.33-33.33V490.66a33.37,33.37,0,0,0-33.33-33.33H593.42a3.95,3.95,0,1,1,0-7.89H742.91a41.27,41.27,0,0,1,41.23,41.22v74.55A41.28,41.28,0,0,1,742.91,606.44Z" fill="#ffffff"/></g></svg>